# xmcd CD database file
#
# Track frame offsets:
#	150
#	12177
#	24850
#	40315
#	54800
#	69175
#	83300
#	98267
#	113672
#	125657
#	141127
#	156072
#
# Disc length: 2277 seconds
#
# Revision: 2
# Processed by: cddbd v1.4PL0 Copyright (c) Steve Scherf et al.
# Submitted via: CDex 1.50
#
DISCID=7b08e30c
DTITLE=Rick Trevino - Dos Mundos
DYEAR=1994
DGENRE=Country
TTITLE0=Salte De Espalda
TTITLE1=No Perdi La Razon
TTITLE2=Tal Como Ayer
TTITLE3=Bastante Cordon
TTITLE4=Un Momento Alla
TTITLE5=Change For A Quarter Moon
TTITLE6=Podria Volar
TTITLE7=Si Quieres Conmigo
TTITLE8=A Quarter At A Time
TTITLE9=Si Tu Ves A Un Hombre Llorar
TTITLE10=Ella No Podra Decir Qu No Me Vio Llorar
TTITLE11=She Can't Say I Didn't Cry (Bilingual)
EXTD=YEAR: 1994
EXTT0=
EXTT1=
EXTT2=
EXTT3=
EXTT4=
EXTT5=
EXTT6=
EXTT7=
EXTT8=
EXTT9=
EXTT10=
EXTT11=
PLAYORDER=
